<svg xmlns="http://www.w3.org/2000/svg" width="100.053" height="63.54" viewBox="0 0 100.053 63.54">
  <path id="Icon_fa-brands-cc-mastercard" data-name="Icon fa-brands-cc-mastercard" d="M83.881,55.833a1.97,1.97,0,1,1-1.945-1.659A1.772,1.772,0,0,1,83.881,55.833ZM29.894,54.174a1.68,1.68,0,1,0,0,3.319,1.709,1.709,0,0,0,1.893-1.659A1.744,1.744,0,0,0,29.894,54.174Zm20.41-.043a1.519,1.519,0,0,0-1.65,1.234h3.318A1.514,1.514,0,0,0,50.3,54.131Zm18.725.043a1.674,1.674,0,1,0,0,3.319,1.728,1.728,0,0,0,1.945-1.659A1.752,1.752,0,0,0,69.029,54.174Zm18.4,3.7c0,.043.052.071.052.156,0,.043-.052.071-.052.156-.052.043-.052.071-.087.113a.246.246,0,0,1-.191.071c-.052.043-.087.043-.191.043a.407.407,0,0,1-.191-.043c-.052,0-.087-.043-.139-.071s-.087-.071-.087-.113a.222.222,0,0,1-.052-.156c0-.071,0-.113.052-.156a.249.249,0,0,1,.087-.156.644.644,0,0,1,.139-.071.372.372,0,0,1,.191-.043.267.267,0,0,1,.191.043c.087.043.139.043.191.071S87.372,57.8,87.425,57.876Zm-.382.2c.087,0,.087-.043.139-.043a.15.15,0,0,0,0-.227c-.052,0-.087-.043-.191-.043h-.278v.5h.139v-.2H86.9l.191.2h.139l-.191-.184Zm13.01-48.946V59.053c0,3.759-3.735,6.808-8.338,6.808H8.338C3.735,65.861,0,62.811,0,59.053V9.128C0,5.37,3.735,2.32,8.338,2.32H91.715C96.318,2.32,100.053,5.37,100.053,9.128Zm-88.936,19.8c0,10.85,10.787,19.644,24.058,19.644A28.25,28.25,0,0,0,48.463,45.3c-12.663-8.411-12.576-24.281,0-32.692A28.083,28.083,0,0,0,35.175,9.327C21.9,9.313,11.117,18.12,11.117,28.928ZM50.026,44.359c12.246-7.8,12.194-23,0-30.848C37.832,21.354,37.78,36.572,50.026,44.359ZM25.308,55.181c0-1.234-.99-2.042-2.553-2.085a2.7,2.7,0,0,0-2.223.922,2.461,2.461,0,0,0-2.119-.922,2.4,2.4,0,0,0-1.841.766v-.624H15.147v5.205h1.424c0-2.681-.434-4.283,1.563-4.283,1.772,0,1.424,1.447,1.424,4.283h1.372c0-2.6-.434-4.283,1.563-4.283,1.772,0,1.424,1.418,1.424,4.283h1.424V55.181Zm7.8-1.943H31.735v.624A2.754,2.754,0,0,0,29.7,53.1a2.766,2.766,0,1,0,0,5.475,2.647,2.647,0,0,0,2.032-.766v.652h1.372Zm7.035,3.631c0-2.127-3.978-1.163-3.978-2.156,0-.808,2.067-.681,3.214-.156l.573-.922c-1.633-.865-5.246-.851-5.246,1.163s3.978,1.177,3.978,2.127c0,.894-2.345.823-3.6.113l-.608.894C36.425,59.01,40.143,58.783,40.143,56.869Zm6.149,1.319-.382-.964c-.66.3-2.119.624-2.119-.582V54.287h2.276v-1.05H43.79V51.649H42.366v1.589h-1.32v1.035h1.32v2.369c0,2.5,3.005,2.042,3.926,1.546Zm2.31-1.9h4.777c0-2.3-1.285-3.205-3.022-3.205-1.841,0-3.161,1.12-3.161,2.737,0,2.908,3.926,3.39,5.871,2.014l-.66-.851c-1.355.908-3.4.823-3.8-.695Zm10.266-3.049a2.312,2.312,0,0,0-2.64.624v-.624H54.8v5.205h1.424V55.507c0-1.645,1.65-1.432,2.223-1.191l.417-1.078Zm1.841,2.6c0-1.617,2.015-2.142,3.6-1.191l.66-.922c-2.015-1.291-5.68-.582-5.68,2.127,0,2.808,3.891,3.376,5.68,2.127l-.66-.922C62.707,57.975,60.709,57.422,60.709,55.833Zm11.586-2.6H70.871v.624c-1.442-1.56-5.194-.681-5.194,1.971,0,2.723,3.891,3.5,5.194,1.971v.652H72.3V53.238Zm5.854,0a2.387,2.387,0,0,0-2.64.624v-.624H74.136v5.205h1.372V55.507c0-1.56,1.563-1.461,2.223-1.191l.417-1.078Zm7-2.113H83.777v2.737c-1.424-1.546-5.194-.723-5.194,1.971,0,2.752,3.908,3.489,5.194,1.971v.652h1.372Zm1.32-10.652v.652h.139v-.652h.33v-.113h-.8v.113h.33Zm1.146,17.559a.365.365,0,0,0-.052-.227c-.052-.043-.087-.113-.139-.156s-.139-.071-.191-.113c-.087,0-.191-.043-.278-.043a2.209,2.209,0,0,1-.243.043.922.922,0,0,0-.191.113.228.228,0,0,0-.139.156.365.365,0,0,0-.052.227.349.349,0,0,0,.052.2.228.228,0,0,0,.139.156.61.61,0,0,0,.191.113.563.563,0,0,0,.243.043.634.634,0,0,0,.278-.043c.052-.043.139-.071.191-.113s.087-.113.139-.156A.349.349,0,0,0,87.616,58.032Zm.556-17.686h-.243l-.278.5-.278-.5h-.243v.766h.139V40.53l.278.5h.191l.243-.5v.582h.191Zm.764-11.417c0-10.808-10.787-19.615-24.058-19.615A28.25,28.25,0,0,0,51.59,12.589C64.114,21,64.3,36.913,51.59,45.281a28.185,28.185,0,0,0,13.288,3.276c13.271.014,24.058-8.779,24.058-19.629Z" transform="translate(0 -2.32)"/>
</svg>
