<svg xmlns="http://www.w3.org/2000/svg" width="94.443" height="61.791" viewBox="0 0 94.443 61.791">
  <path id="Icon_corebrands-cc-discover" data-name="Icon corebrands-cc-discover" d="M85.325,26.632c0-1.09-.9-1.668-2.559-1.668h-.8V28.4h.77C84.422,28.4,85.325,27.791,85.325,26.632ZM86.57,4H7.87C3.523,4,0,6.965,0,10.622V59.171c0,3.656,3.525,6.62,7.871,6.621h78.7c4.346,0,7.869-2.965,7.871-6.621V10.622C94.44,6.965,90.917,4,86.57,4ZM79.34,23.156c3.707,0,8.674-.566,8.674,3.366,0,1.738-1.083,2.855-3.066,3.2l4.229,4.744H85.962l-3.639-4.523h-.36v4.523H79.34Zm-9.164.015H77.6V25.1H72.8v2.51h4.639v1.9H72.8v3.061h4.8v1.9H70.176Zm-11.265,0L62.5,30.785l3.639-7.614h2.869l-5.82,11.613H61.78L56.043,23.171Zm-9.167-.415c4.04,0,7.315,2.754,7.313,6.152s-3.274,6.153-7.313,6.152-7.315-2.754-7.313-6.152S45.705,22.755,49.745,22.756Zm-8.08.842v2.622c-3.3-2.773-7.673-.648-7.673,2.622,0,3.448,4.509,5.31,7.673,2.649v2.622c-4.87,1.974-10.38-.787-10.38-5.268,0-4.3,5.427-7.309,10.38-5.241ZM25.728,32.741c1.868,0,3.674-2.11-.54-3.364-2.458-.76-3.311-1.571-3.311-3.131,0-3.2,5.017-4.332,8.148-1.971l-1.378,1.49c-1.706-1.6-4.082-.854-4.082.345,0,.606.443.951,2.016,1.42,2.984.911,3.869,1.723,3.869,3.53,0,4.069-6.363,5.159-9.279,1.559l1.688-1.365a3.213,3.213,0,0,0,2.869,1.49ZM9.086,34.479H5.249V23.168H9.086c4.279,0,7.231,2.344,7.231,5.668,0,2.552-2.163,5.64-7.231,5.64Zm11.067,0H17.529V23.168h2.624ZM89.194,59.3a2.305,2.305,0,0,1-2.458,2.068H20.988c31.085-4.911,62.746-19.2,68.206-22.068ZM12.152,26.011A5.4,5.4,0,0,0,8.56,25.1H7.873v7.475H8.56a5.745,5.745,0,0,0,3.592-.881,3.6,3.6,0,0,0,1.458-2.855,3.522,3.522,0,0,0-1.458-2.828Z" transform="translate(0.001 -4)"/>
</svg>
