<svg xmlns="http://www.w3.org/2000/svg" width="111.509" height="41.683" viewBox="0 0 111.509 41.683">
  <path id="Icon_corebrands-visa" data-name="Icon corebrands-visa" d="M81.053,14.184a19.724,19.724,0,0,0-8.095-1.7c-8.91,0-15.207,5.488-15.245,13.342C57.64,31.6,62.177,34.85,65.605,36.8c3.523,1.992,4.7,3.233,4.683,5-.017,2.723-2.816,3.938-5.391,3.938a16.087,16.087,0,0,1-8.513-2.124l-1.112-.641L54.005,52.04a26.187,26.187,0,0,0,10.109,2.124c9.492,0,15.681-5.441,15.751-13.831.073-4.6-2.356-8.092-7.53-10.972-3.122-1.856-5.077-3.122-5.077-5.025,0-1.682,1.669-3.449,5.154-3.449a14.012,14.012,0,0,1,6.75,1.525l.854.463,1.251-8.738Zm23.162-.951H97.246a4.469,4.469,0,0,0-4.757,3.343L79.095,53.586h9.475l1.91-6.062,11.559.021c.289,1.415,1.1,6.036,1.1,6.036h8.367ZM44.882,12.9H53.9L48.259,53.272H39.237L44.882,12.88ZM21.943,35.134l.923,5.62L31.7,13.233h9.565L27.037,53.519H17.514L9.708,19.4a2.145,2.145,0,0,0-.854-1.347A34.1,34.1,0,0,0,0,14.053l.108-.845H14.663a3.89,3.89,0,0,1,4.1,3.411l3.178,18.537Zm71.108,4.137,3.614-11.3c-.056.106.742-2.324,1.2-3.853l.617,3.47,2.091,11.66H93.051Z" transform="translate(0 -12.481)"/>
</svg>
